<svg xmlns="http://www.w3.org/2000/svg" viewBox="0 0 100 100" fill="none">
  <defs>
    <linearGradient id="logo-strand-grad" x1="0%" y1="0%" x2="100%" y2="100%">
      <stop offset="0%" stop-color="#064e3b" />
      <stop offset="35%" stop-color="#0f766e" />
      <stop offset="70%" stop-color="#10b981" />
      <stop offset="100%" stop-color="#a7f3d0" />
    </linearGradient>
    <radialGradient id="logo-center-glow" cx="50%" cy="50%" r="50%">
      <stop offset="0%" stop-color="#ffffff" />
      <stop offset="35%" stop-color="#cfffec" />
      <stop offset="70%" stop-color="#10b981" stop-opacity="0.5" />
      <stop offset="100%" stop-color="#10b981" stop-opacity="0" />
    </radialGradient>
  </defs>
  
  <g>
    <path d="M 50 6 C 74 6, 94 28, 94 50 C 94 72, 78 90, 58 90 C 42 90, 26 74, 30 54 C 34 38, 48 30, 58 38 C 66 44, 60 56, 52 56 C 46 56, 44 48, 50 48" stroke="url(#logo-strand-grad)" stroke-width="2.5" stroke-linecap="round" opacity="0.8" />
    <path d="M 50 6 C 74 6, 94 28, 94 50 C 94 72, 78 90, 58 90 C 42 90, 26 74, 30 54 C 34 38, 48 30, 58 38 C 66 44, 60 56, 52 56 C 46 56, 44 48, 50 48" stroke="url(#logo-strand-grad)" stroke-width="2.5" stroke-linecap="round" opacity="0.8" transform="rotate(30 50 50)" />
    <path d="M 50 6 C 74 6, 94 28, 94 50 C 94 72, 78 90, 58 90 C 42 90, 26 74, 30 54 C 34 38, 48 30, 58 38 C 66 44, 60 56, 52 56 C 46 56, 44 48, 50 48" stroke="url(#logo-strand-grad)" stroke-width="2.5" stroke-linecap="round" opacity="0.8" transform="rotate(60 50 50)" />
    <path d="M 50 6 C 74 6, 94 28, 94 50 C 94 72, 78 90, 58 90 C 42 90, 26 74, 30 54 C 34 38, 48 30, 58 38 C 66 44, 60 56, 52 56 C 46 56, 44 48, 50 48" stroke="url(#logo-strand-grad)" stroke-width="2.5" stroke-linecap="round" opacity="0.8" transform="rotate(90 50 50)" />
    <path d="M 50 6 C 74 6, 94 28, 94 50 C 94 72, 78 90, 58 90 C 42 90, 26 74, 30 54 C 34 38, 48 30, 58 38 C 66 44, 60 56, 52 56 C 46 56, 44 48, 50 48" stroke="url(#logo-strand-grad)" stroke-width="2.5" stroke-linecap="round" opacity="0.8" transform="rotate(120 50 50)" />
    <path d="M 50 6 C 74 6, 94 28, 94 50 C 94 72, 78 90, 58 90 C 42 90, 26 74, 30 54 C 34 38, 48 30, 58 38 C 66 44, 60 56, 52 56 C 46 56, 44 48, 50 48" stroke="url(#logo-strand-grad)" stroke-width="2.5" stroke-linecap="round" opacity="0.8" transform="rotate(150 50 50)" />
    <path d="M 50 6 C 74 6, 94 28, 94 50 C 94 72, 78 90, 58 90 C 42 90, 26 74, 30 54 C 34 38, 48 30, 58 38 C 66 44, 60 56, 52 56 C 46 56, 44 48, 50 48" stroke="url(#logo-strand-grad)" stroke-width="2.5" stroke-linecap="round" opacity="0.8" transform="rotate(180 50 50)" />
    <path d="M 50 6 C 74 6, 94 28, 94 50 C 94 72, 78 90, 58 90 C 42 90, 26 74, 30 54 C 34 38, 48 30, 58 38 C 66 44, 60 56, 52 56 C 46 56, 44 48, 50 48" stroke="url(#logo-strand-grad)" stroke-width="2.5" stroke-linecap="round" opacity="0.8" transform="rotate(210 50 50)" />
    <path d="M 50 6 C 74 6, 94 28, 94 50 C 94 72, 78 90, 58 90 C 42 90, 26 74, 30 54 C 34 38, 48 30, 58 38 C 66 44, 60 56, 52 56 C 46 56, 44 48, 50 48" stroke="url(#logo-strand-grad)" stroke-width="2.5" stroke-linecap="round" opacity="0.8" transform="rotate(240 50 50)" />
    <path d="M 50 6 C 74 6, 94 28, 94 50 C 94 72, 78 90, 58 90 C 42 90, 26 74, 30 54 C 34 38, 48 30, 58 38 C 66 44, 60 56, 52 56 C 46 56, 44 48, 50 48" stroke="url(#logo-strand-grad)" stroke-width="2.5" stroke-linecap="round" opacity="0.8" transform="rotate(270 50 50)" />
    <path d="M 50 6 C 74 6, 94 28, 94 50 C 94 72, 78 90, 58 90 C 42 90, 26 74, 30 54 C 34 38, 48 30, 58 38 C 66 44, 60 56, 52 56 C 46 56, 44 48, 50 48" stroke="url(#logo-strand-grad)" stroke-width="2.5" stroke-linecap="round" opacity="0.8" transform="rotate(300 50 50)" />
    <path d="M 50 6 C 74 6, 94 28, 94 50 C 94 72, 78 90, 58 90 C 42 90, 26 74, 30 54 C 34 38, 48 30, 58 38 C 66 44, 60 56, 52 56 C 46 56, 44 48, 50 48" stroke="url(#logo-strand-grad)" stroke-width="2.5" stroke-linecap="round" opacity="0.8" transform="rotate(330 50 50)" />
  </g>
  <circle cx="50" cy="50" r="16" fill="url(#logo-center-glow)" />
</svg>